<svg xmlns="http://www.w3.org/2000/svg" viewBox="0 0 64 64" data-hitbox-shape="ellipse" data-hitbox-rx="26" data-hitbox-ry="24" data-viewbox-half="32">
  <defs>
    <radialGradient id="rice-shine" cx="0.35" cy="0.35" r="0.6" fx="0.3" fy="0.3">
      <stop offset="0%" stop-color="#fef9e7"/>
      <stop offset="50%" stop-color="#f4d03f"/>
      <stop offset="100%" stop-color="#d4a017"/>
    </radialGradient>
    <filter id="rice-shadow" x="-20%" y="-20%" width="140%" height="140%">
      <feDropShadow dx="1" dy="2" stdDeviation="1" flood-color="#8b6914" flood-opacity="0.4"/>
    </filter>
  </defs>
  <g filter="url(#rice-shadow)">
    <ellipse cx="28" cy="30" rx="5" ry="8" fill="url(#rice-shine)" transform="rotate(-15 28 30)"/>
    <ellipse cx="36" cy="32" rx="5" ry="8" fill="url(#rice-shine)" transform="rotate(8 36 32)"/>
    <ellipse cx="32" cy="36" rx="5" ry="8" fill="url(#rice-shine)" transform="rotate(-25 32 36)"/>
    <ellipse cx="24" cy="35" rx="4.5" ry="7" fill="url(#rice-shine)" transform="rotate(12 24 35)"/>
    <ellipse cx="40" cy="34" rx="4.5" ry="7" fill="url(#rice-shine)" transform="rotate(-8 40 34)"/>
    <ellipse cx="30" cy="38" rx="4" ry="6" fill="url(#rice-shine)" transform="rotate(20 30 38)"/>
    <ellipse cx="34" cy="28" rx="4" ry="6" fill="url(#rice-shine)" transform="rotate(-18 34 28)"/>
    <ellipse cx="26" cy="32" rx="4" ry="6" fill="url(#rice-shine)" transform="rotate(5 26 32)"/>
    <ellipse cx="38" cy="37" rx="3.5" ry="5.5" fill="url(#rice-shine)" transform="rotate(-22 38 37)"/>
  </g>
  <ellipse cx="28" cy="28" rx="4" ry="3" fill="#fff" opacity="0.3" transform="rotate(-15 28 28)"/>
  <ellipse cx="35" cy="30" rx="3" ry="2.5" fill="#fff" opacity="0.25" transform="rotate(8 35 30)"/>
</svg>
